<svg xmlns="http://www.w3.org/2000/svg" width="78.652" height="78.652" viewBox="0 0 78.652 78.652">
  <path id="Shape_8_copy_4" data-name="Shape 8 copy 4" d="M161.852,89.766l-18.794.126,7.668-8.019,18.795-.127.713,18.782-7.668,8.018Zm32.3,10.228L194.026,81.2l18.781-.713,8.019,7.669-18.781.714.127,18.793ZM173.49,77.6l-18.794.126,7.669-8.018,18.794-.127.714,18.781L174.2,96.377Zm8.492,10.76-.128-18.794,18.782-.713,8.019,7.668-18.781.714L190,96.024Zm-27.639-26.43,18.781-.713L173,42.418l8.019,7.668.126,18.795-18.781.713Zm26.784-11.841,7.668-8.019.713,18.781,18.795-.126-7.669,8.019-18.795.126Zm-38.954.2,18.78-.713-.126-18.795,8.019,7.669.127,18.795-18.781.712Zm50.592-12.373,7.668-8.019.714,18.78,18.794-.125-7.668,8.018-18.795.127Z" transform="translate(-142.174 -29.894)" fill="#f5c506" opacity="0.502"/>
</svg>
